<?xml version="1.0" encoding="utf-8"?>
<!-- Generator: Adobe Illustrator 26.3.1, SVG Export Plug-In . SVG Version: 6.00 Build 0)  -->
<svg version="1.1" id="Layer_1" xmlns="http://www.w3.org/2000/svg" xmlns:xlink="http://www.w3.org/1999/xlink" x="0px" y="0px"
	 viewBox="0 0 1000 1000" style="enable-background:new 0 0 1000 1000;" xml:space="preserve">
<style type="text/css">
	.st0{fill:#FFFFFF;}
</style>
<rect x="0" class="st0" width="1000" height="1000"/>
<g>
	<path d="M166.67,302.4h179.64c29.59,0,53.97,4.4,73.17,13.19c36.45,16.87,54.68,47.99,54.68,93.36c0,23.68-4.89,43.04-14.67,58.11
		c-9.77,15.07-23.45,27.17-41.03,36.32c15.43,6.28,27.04,14.53,34.84,24.75c7.8,10.23,12.15,26.81,13.05,49.77l1.88,53
		c0.53,15.07,1.79,26.28,3.76,33.63c3.23,12.56,8.96,20.63,17.21,24.21v8.88h-65.6c-1.8-3.4-3.23-7.8-4.31-13.19
		s-1.97-15.79-2.69-31.21l-3.23-65.91c-1.21-25.83-10.55-43.13-27.96-51.92c-9.93-4.84-25.53-7.27-46.79-7.27h-118.4V697.6h-53.55
		V302.4z M340.56,483.45c24.41,0,43.73-5.01,57.95-15.07c14.21-10.04,21.32-28.16,21.32-54.35c0-28.16-9.95-47.35-29.83-57.57
		c-10.64-5.39-24.85-8.07-42.64-8.07H220.22v135.05L340.56,483.45L340.56,483.45z"/>
	<path d="M526.64,302.4h170.88c46.57,0,79.71,13.81,99.38,41.43c11.55,16.32,17.33,35.16,17.33,56.49
		c0,24.93-7.09,45.39-21.25,61.35c-7.36,8.43-17.93,16.15-31.75,23.13c20.27,7.72,35.43,16.41,45.47,26.09
		c17.76,17.21,26.64,40.99,26.64,71.29c0,25.47-8.03,48.52-24.09,69.15c-24,30.85-62.17,46.27-114.5,46.27h-168.1V302.4H526.64z
		 M677.5,469.47c22.84,0,40.6-3.13,53.28-9.41c19.93-9.87,29.91-27.61,29.91-53.27c0-25.83-10.6-43.23-31.8-52.19
		c-11.96-5.01-29.73-7.53-53.28-7.53h-96.5v122.41h98.4v-0.01H677.5z M695.59,651.86c33.13,0,56.76-9.51,70.88-28.52
		c8.87-12.01,13.31-26.55,13.31-43.59c0-28.69-12.95-48.24-38.84-58.65c-13.76-5.56-31.96-8.35-54.59-8.35H579.08v139.1h116.51
		V651.86z"/>
</g>
</svg>
