<?xml version="1.0" encoding="utf-8"?>
<!-- Generator: Adobe Illustrator 26.3.1, SVG Export Plug-In . SVG Version: 6.00 Build 0)  -->
<svg version="1.1" id="Layer_1" xmlns="http://www.w3.org/2000/svg" xmlns:xlink="http://www.w3.org/1999/xlink" x="0px" y="0px"
	 viewBox="0 0 1000 1000" style="enable-background:new 0 0 1000 1000;" xml:space="preserve">
<g>
	<path d="M299.8,545H210v163.2h-85V291.9h204.2c29.1,0.5,51.6,4.2,67.4,10.7c15.7,6.7,29,16.3,40,29.1c9,10.5,16.2,22.1,21.5,35
		c5.3,12.8,7.8,27.5,7.8,43.8c0,19.8-5,39.1-15,58.3c-10,19.1-26.5,32.6-49.5,40.5c19.1,7.7,32.8,18.7,40.8,33c8,14.2,12,36,12,65.1
		v28c0,19,0.8,32,2.3,38.6c2.3,10.7,7.5,18.7,15.8,23.6V708h-95.7c-2.7-9.2-4.5-16.7-5.7-22.3c-2.3-11.7-3.5-23.6-3.7-35.8
		l-0.5-38.6c-0.3-26.5-5.2-44.3-14.5-53.1C342.8,549.3,325.3,545,299.8,545z M352.6,469.2c17.3-7.8,26-23.5,26-47
		c0-25.3-8.3-42.1-25.1-50.8c-9.5-4.8-23.5-7.3-42.3-7.3H210.1V476h98.4C328.2,476,342.8,473.7,352.6,469.2z"/>
	<path d="M720.3,708.1H531.6V291.9h202.2c51,0.8,87.1,15.5,108.4,44.3c12.8,17.7,19.1,38.8,19.1,63.6c0,25.5-6.3,45.8-19.1,61.3
		c-7.2,8.7-17.7,16.7-31.6,23.6c21.3,7.7,37.3,20,48.1,36.6c10.8,16.8,16.3,37.1,16.3,60.9c0,24.6-6.2,46.8-18.7,66.4
		c-7.8,13-17.8,24-29.6,32.8c-13.3,10.2-29.1,17.2-47.3,21C761.3,706.3,741.6,708.1,720.3,708.1z M761.4,445.5
		c11.3-6.8,17-19,17-36.5c0-19.3-7.5-32.1-22.6-38.5c-13-4.3-29.6-6.5-49.8-6.5h-91.6v91.8h102.2
		C735.1,455.9,750.1,452.4,761.4,445.5z M718.3,524.8H614.7v111.1H717c18.3,0,32.5-2.5,42.6-7.3c18.5-9,27.6-26.3,27.6-52
		c0-21.6-9-36.5-26.8-44.6C750.4,527.5,736.5,525,718.3,524.8z"/>
</g>
</svg>
