<?xml version="1.0" standalone="no"?>
<!DOCTYPE svg PUBLIC "-//W3C//DTD SVG 20010904//EN"
 "http://www.w3.org/TR/2001/REC-SVG-20010904/DTD/svg10.dtd">
<svg version="1.0" xmlns="http://www.w3.org/2000/svg"
 width="700.000000pt" height="700.000000pt" viewBox="0 0 700.000000 700.000000"
 preserveAspectRatio="xMidYMid meet">
<metadata>
Created by potrace 1.14, written by Peter Selinger 2001-2017
</metadata>
<g transform="translate(0.000000,700.000000) scale(0.100000,-0.100000)"
fill="#000000" stroke="none">
<path d="M875 5048 c-3 -7 -4 -708 -3 -1558 l3 -1545 210 0 210 0 3 668 2 668
563 -4 c613 -4 644 -7 748 -63 58 -32 119 -94 148 -153 43 -84 52 -147 71
-526 20 -384 32 -507 55 -563 l14 -32 258 2 258 3 3 27 c3 21 -8 37 -51 80
-93 90 -109 171 -127 663 -11 280 -23 380 -56 465 -41 105 -127 194 -248 256
l-74 38 41 25 c155 91 284 236 337 379 47 126 67 304 50 452 -24 213 -80 341
-203 465 -128 129 -288 204 -516 242 -132 22 -1688 33 -1696 11z m1619 -373
c204 -43 324 -163 362 -362 18 -93 17 -185 -1 -287 -35 -198 -143 -307 -363
-369 -74 -20 -100 -21 -634 -25 l-558 -3 0 530 0 531 563 0 c455 0 575 -3 631
-15z"/>
<path d="M3710 3500 l0 -1562 758 5 c821 5 821 5 1012 63 252 77 439 233 553
459 63 127 79 194 84 356 7 200 -15 305 -95 457 -59 111 -220 241 -384 308
-38 15 -68 30 -68 34 0 3 30 23 68 44 102 59 211 175 260 277 60 124 76 212
69 378 -6 147 -20 209 -74 316 -108 213 -284 337 -563 397 -90 20 -135 21
-857 25 l-763 4 0 -1561z m1440 1185 c171 -28 292 -102 349 -216 41 -83 54
-156 49 -274 -12 -240 -128 -370 -388 -432 -53 -13 -156 -17 -552 -20 l-488
-5 0 481 0 481 468 0 c370 0 487 -3 562 -15z m117 -1313 c289 -65 433 -230
433 -497 0 -266 -133 -454 -372 -530 -121 -38 -259 -46 -753 -43 l-450 3 -3
548 -2 548 527 -4 c490 -3 535 -5 620 -25z"/>
</g>
</svg>
