<?xml version="1.0" standalone="no"?>
<!DOCTYPE svg PUBLIC "-//W3C//DTD SVG 20010904//EN"
 "http://www.w3.org/TR/2001/REC-SVG-20010904/DTD/svg10.dtd">
<svg version="1.0" xmlns="http://www.w3.org/2000/svg"
 width="700.000000pt" height="700.000000pt" viewBox="0 0 700.000000 700.000000"
 preserveAspectRatio="xMidYMid meet">
<metadata>
Created by potrace 1.14, written by Peter Selinger 2001-2017
</metadata>
<g transform="translate(0.000000,700.000000) scale(0.100000,-0.100000)"
fill="#000000" stroke="none">
<path d="M1750 3501 l0 -1038 140 0 140 -1 0 444 0 444 48 1 c221 3 674 -1
702 -6 112 -19 170 -52 213 -120 42 -65 52 -130 62 -381 8 -215 17 -312 34
-356 l9 -25 166 0 c198 -1 206 3 147 71 -37 42 -55 80 -66 137 -5 23 -8 74
-20 365 -11 252 -49 335 -191 415 l-54 31 57 40 c131 92 200 204 220 358 37
284 -73 501 -302 597 -125 53 -169 56 -757 59 l-548 3 0 -1038z m1112 775
c144 -43 212 -145 212 -321 0 -167 -33 -244 -129 -301 -105 -61 -152 -66 -570
-67 l-340 -1 -3 355 -2 355 387 -2 c333 -1 396 -3 445 -18z"/>
<path d="M3640 3500 l0 -1038 523 3 c498 2 526 3 607 24 127 33 223 84 300
161 112 111 168 233 177 385 14 250 -96 431 -319 521 -27 10 -48 21 -48 24 0
3 19 16 42 29 112 64 195 182 218 310 49 272 -95 511 -351 585 -95 28 -109 28
-636 31 l-513 3 0 -1038z m957 790 c184 -32 267 -125 267 -300 0 -47 -5 -102
-12 -122 -20 -56 -67 -114 -116 -143 -91 -53 -124 -57 -486 -62 l-335 -5 0
319 0 318 30 5 c56 9 589 1 652 -10z m3 -863 c233 -24 359 -137 366 -327 5
-167 -65 -289 -204 -352 -89 -40 -140 -45 -514 -44 l-333 1 0 360 c0 277 2
361 12 365 15 6 610 3 673 -3z"/>
</g>
</svg>
